<svg xmlns="http://www.w3.org/2000/svg" width="390" height="844" viewBox="0 0 390 844" role="img" aria-labelledby="title desc">
  <title id="title">SwiftCinemas Admin Screen Mock</title>
  <desc id="desc">Vector mock of the AdminVC screen with top Back and Update buttons, form fields, and bottom Save button.</desc>

  <rect x="0" y="0" width="390" height="844" fill="#f7f7f8"/>
  <rect x="16" y="12" width="358" height="820" rx="24" fill="#ffffff" stroke="#d8d8dc"/>

  <rect x="28" y="40" width="160" height="34" rx="14" fill="#111111"/>
  <text x="108" y="62" text-anchor="middle" font-family="-apple-system, BlinkMacSystemFont, 'Segoe UI', sans-serif" font-size="13" font-weight="600" fill="#ffffff">Back</text>

  <rect x="202" y="40" width="160" height="34" rx="14" fill="#111111"/>
  <text x="282" y="62" text-anchor="middle" font-family="-apple-system, BlinkMacSystemFont, 'Segoe UI', sans-serif" font-size="13" font-weight="600" fill="#ffffff">Update</text>

  <text x="40" y="118" font-family="-apple-system, BlinkMacSystemFont, 'Segoe UI', sans-serif" font-size="14" fill="#222222">Movie</text>
  <rect x="40" y="126" width="230" height="34" rx="6" fill="#fafafa" stroke="#c9c9cf"/>
  <text x="52" y="148" font-family="Menlo, Monaco, monospace" font-size="12" fill="#85858c">movieName</text>
  <rect x="282" y="126" width="80" height="34" rx="6" fill="#e9eaee" stroke="#c9c9cf"/>
  <text x="322" y="148" text-anchor="middle" font-family="-apple-system, BlinkMacSystemFont, 'Segoe UI', sans-serif" font-size="12" fill="#1f1f1f">Select</text>

  <text x="40" y="184" font-family="-apple-system, BlinkMacSystemFont, 'Segoe UI', sans-serif" font-size="14" fill="#222222">Venue name</text>
  <rect x="40" y="192" width="230" height="34" rx="6" fill="#fafafa" stroke="#c9c9cf"/>
  <text x="52" y="214" font-family="Menlo, Monaco, monospace" font-size="12" fill="#85858c">venueName</text>
  <rect x="282" y="192" width="80" height="34" rx="6" fill="#e9eaee" stroke="#c9c9cf"/>
  <text x="322" y="214" text-anchor="middle" font-family="-apple-system, BlinkMacSystemFont, 'Segoe UI', sans-serif" font-size="12" fill="#1f1f1f">Select</text>

  <text x="40" y="250" font-family="-apple-system, BlinkMacSystemFont, 'Segoe UI', sans-serif" font-size="14" fill="#222222">NrOfRows</text>
  <rect x="40" y="258" width="322" height="34" rx="6" fill="#fafafa" stroke="#c9c9cf"/>
  <text x="52" y="280" font-family="Menlo, Monaco, monospace" font-size="12" fill="#85858c">nrOfRows</text>

  <text x="40" y="316" font-family="-apple-system, BlinkMacSystemFont, 'Segoe UI', sans-serif" font-size="14" fill="#222222">NrOfSeats</text>
  <rect x="40" y="324" width="322" height="34" rx="6" fill="#fafafa" stroke="#c9c9cf"/>
  <text x="52" y="346" font-family="Menlo, Monaco, monospace" font-size="12" fill="#85858c">nrOfSeatsInRow</text>

  <text x="40" y="382" font-family="-apple-system, BlinkMacSystemFont, 'Segoe UI', sans-serif" font-size="14" fill="#222222">Screening Date</text>
  <rect x="40" y="390" width="322" height="34" rx="6" fill="#fafafa" stroke="#c9c9cf"/>
  <text x="52" y="412" font-family="Menlo, Monaco, monospace" font-size="12" fill="#85858c">yyyy-MM-dd HH:mm:ss</text>

  <text x="40" y="448" font-family="-apple-system, BlinkMacSystemFont, 'Segoe UI', sans-serif" font-size="14" fill="#222222">ScreeningID</text>
  <rect x="40" y="456" width="322" height="34" rx="6" fill="#fafafa" stroke="#c9c9cf"/>
  <text x="52" y="478" font-family="Menlo, Monaco, monospace" font-size="12" fill="#85858c">ScreeningID</text>

  <text x="40" y="514" font-family="-apple-system, BlinkMacSystemFont, 'Segoe UI', sans-serif" font-size="14" fill="#222222">Category (Troll)</text>
  <rect x="40" y="522" width="322" height="34" rx="6" fill="#fafafa" stroke="#c9c9cf"/>
  <text x="52" y="544" font-family="Menlo, Monaco, monospace" font-size="12" fill="#85858c">category</text>

  <text x="40" y="582" font-family="-apple-system, BlinkMacSystemFont, 'Segoe UI', sans-serif" font-size="12" fill="#cf2f2f">Bad Cat!</text>

  <rect x="28" y="774" width="334" height="34" rx="14" fill="#111111"/>
  <text x="195" y="796" text-anchor="middle" font-family="-apple-system, BlinkMacSystemFont, 'Segoe UI', sans-serif" font-size="13" font-weight="600" fill="#ffffff">Save</text>
</svg>

