<svg xmlns="http://www.w3.org/2000/svg" width="390" height="844" viewBox="0 0 390 844">
  <rect width="390" height="844" fill="#f7f7fa"/>
  <rect x="8" y="8" width="182" height="36" rx="14" fill="#111"/>
  <rect x="200" y="8" width="182" height="36" rx="14" fill="#111"/>
  <text x="35" y="31" font-family="Arial, sans-serif" font-size="13" fill="#fff">Back</text>
  <text x="235" y="31" font-family="Arial, sans-serif" font-size="13" fill="#fff">Sort: Purchase</text>

  <rect x="8" y="56" width="374" height="72" rx="10" fill="#fff" stroke="#e5e5e8"/>
  <rect x="8" y="56" width="374" height="26" rx="8" fill="#eef3ff" stroke="#c8d6f5"/>
  <text x="195" y="73" text-anchor="middle" font-family="Arial, sans-serif" font-size="11" fill="#2b4f93">Purchase deleted (all tickets cancelled)</text>
  <rect x="8" y="86" width="374" height="72" rx="10" fill="#fff" stroke="#e5e5e8"/>
  <text x="20" y="76" font-family="Arial, sans-serif" font-size="12" fill="#222">SORT / FILTERS</text>
  <rect x="20" y="116" width="168" height="30" rx="10" fill="#111"/>
  <rect x="202" y="116" width="168" height="30" rx="10" fill="#111"/>
  <text x="104" y="136" text-anchor="middle" font-family="Arial, sans-serif" font-size="12" fill="#fff">By Screening</text>
  <text x="286" y="136" text-anchor="middle" font-family="Arial, sans-serif" font-size="12" fill="#fff">By Purchase</text>

  <rect x="8" y="170" width="374" height="346" rx="10" fill="#fff" stroke="#e5e5e8"/>
  <text x="20" y="190" font-family="Arial, sans-serif" font-size="12" fill="#222">PURCHASE LIST</text>
  <text x="20" y="206" font-family="Arial, sans-serif" font-size="10" fill="#5b5b67">Swipe left directly on a row line to reveal refund</text>

  <rect x="20" y="216" width="350" height="84" rx="8" fill="#fff" stroke="#ececf1"/>
  <rect x="30" y="230" width="34" height="48" rx="6" fill="#8790a2"/>
  <text x="47" y="257" text-anchor="middle" font-family="Arial, sans-serif" font-size="7" fill="#fff">POSTER</text>
  <text x="74" y="238" font-family="Courier New, monospace" font-size="12" fill="#222">Interstellar</text>
  <text x="74" y="256" font-family="Arial, sans-serif" font-size="11" fill="#787884">2026-05-16 19:30</text>
  <rect x="180" y="245" width="58" height="14" rx="7" fill="#fff" stroke="#d4d5da"/>
  <text x="209" y="255" text-anchor="middle" font-family="Arial, sans-serif" font-size="9" fill="#666">↤ swipe</text>
  <rect x="270" y="228" width="90" height="18" rx="9" fill="#fff" stroke="#d4d5da"/>
  <text x="315" y="241" text-anchor="middle" font-family="Arial, sans-serif" font-size="10" fill="#666">purchase: 241</text>

  <rect x="20" y="306" width="350" height="84" rx="8" fill="#fff" stroke="#ececf1"/>
  <rect x="30" y="320" width="34" height="48" rx="6" fill="#8790a2"/>
  <text x="47" y="347" text-anchor="middle" font-family="Arial, sans-serif" font-size="7" fill="#fff">POSTER</text>
  <text x="74" y="328" font-family="Courier New, monospace" font-size="12" fill="#222">Joker</text>
  <text x="74" y="346" font-family="Arial, sans-serif" font-size="11" fill="#787884">2026-05-17 21:00</text>
  <rect x="180" y="335" width="58" height="14" rx="7" fill="#fff" stroke="#d4d5da"/>
  <text x="209" y="345" text-anchor="middle" font-family="Arial, sans-serif" font-size="9" fill="#666">↤ swipe</text>
  <rect x="270" y="318" width="90" height="18" rx="9" fill="#fff" stroke="#d4d5da"/>
  <text x="315" y="331" text-anchor="middle" font-family="Arial, sans-serif" font-size="10" fill="#666">purchase: 242</text>

  <rect x="20" y="396" width="350" height="84" rx="8" fill="#fff" stroke="#ececf1"/>
  <rect x="30" y="410" width="34" height="48" rx="6" fill="#8790a2"/>
  <text x="47" y="437" text-anchor="middle" font-family="Arial, sans-serif" font-size="7" fill="#fff">POSTER</text>
  <text x="74" y="418" font-family="Courier New, monospace" font-size="12" fill="#222">Parasite</text>
  <text x="74" y="436" font-family="Arial, sans-serif" font-size="11" fill="#787884">2026-05-18 18:20</text>
  <rect x="180" y="425" width="58" height="14" rx="7" fill="#fff" stroke="#d4d5da"/>
  <text x="209" y="435" text-anchor="middle" font-family="Arial, sans-serif" font-size="9" fill="#666">↤ swipe</text>
  <rect x="270" y="408" width="90" height="18" rx="9" fill="#fff" stroke="#d4d5da"/>
  <text x="315" y="421" text-anchor="middle" font-family="Arial, sans-serif" font-size="10" fill="#666">purchase: 243</text>
  <text x="195" y="500" text-anchor="middle" font-family="Arial, sans-serif" font-size="10" fill="#7a7a86">List scrolls for additional purchases</text>
</svg>

