<svg xmlns="http://www.w3.org/2000/svg" width="390" height="844" viewBox="0 0 390 844">
  <rect width="390" height="844" fill="#f7f7fa"/>
  <rect x="8" y="8" width="182" height="36" rx="14" fill="#111"/>
  <rect x="200" y="8" width="182" height="36" rx="14" fill="#111"/>
  <text x="35" y="31" font-family="Arial, sans-serif" font-size="13" fill="#fff">Back</text>
  <text x="273" y="31" font-family="Arial, sans-serif" font-size="13" fill="#fff">Pdf</text>
  <text x="195" y="52" text-anchor="middle" font-family="Arial, sans-serif" font-size="12" fill="#2b2b34">Tickets</text>

  <rect x="8" y="56" width="374" height="362" rx="10" fill="#fff" stroke="#e5e5e8"/>
  <text x="20" y="76" font-family="Arial, sans-serif" font-size="12" fill="#222">TICKET LIST (QR + DATA)</text>

  <rect x="20" y="90" width="350" height="150" rx="8" fill="#fff" stroke="#ececf1"/>
  <rect x="30" y="102" width="82" height="112" rx="8" fill="#7f899b"/>
  <text x="71" y="162" text-anchor="middle" font-family="Arial, sans-serif" font-size="10" fill="#fff">POSTER</text>
  <rect x="34" y="218" width="74" height="74" fill="#fff" stroke="#d2d2d8"/>
  <path d="M34 218 L108 292 M108 218 L34 292" stroke="#222" stroke-width="2"/>

  <text x="126" y="120" font-family="Courier New, monospace" font-size="12" fill="#222">Interstellar (ticket T-241-1)</text>
  <text x="126" y="138" font-family="Arial, sans-serif" font-size="11" fill="#787884">Seat: B12</text>
  <text x="126" y="156" font-family="Arial, sans-serif" font-size="11" fill="#787884">Row: B</text>
  <text x="126" y="174" font-family="Arial, sans-serif" font-size="11" fill="#787884">Date: 2026-05-16 19:30</text>
  <text x="126" y="192" font-family="Arial, sans-serif" font-size="11" fill="#787884">Venue: downtown_cinema</text>
  <text x="126" y="212" font-family="Arial, sans-serif" font-size="10" fill="#5b5b67">Long press to reveal delete row</text>

  <rect x="20" y="246" width="350" height="34" rx="6" fill="#fff5f6" stroke="#f0c9cd"/>
  <text x="30" y="267" font-family="Arial, sans-serif" font-size="10" fill="#7c3e46">Long press revealed delete action</text>
  <rect x="286" y="252" width="74" height="22" rx="10" fill="#d70015"/>
  <text x="323" y="267" text-anchor="middle" font-family="Arial, sans-serif" font-size="10" fill="#fff">Delete</text>

  <rect x="8" y="430" width="374" height="28" rx="8" fill="#eef3ff" stroke="#c8d6f5"/>
  <text x="195" y="448" text-anchor="middle" font-family="Arial, sans-serif" font-size="11" fill="#2b4f93">All tickets deleted -> purchase deleted -> navigate back to Purchases</text>

  <rect x="8" y="470" width="374" height="168" rx="10" fill="#fff" stroke="#e5e5e8"/>
  <text x="20" y="490" font-family="Arial, sans-serif" font-size="12" fill="#222">PDF VIEW (opened from Pdf action)</text>
  <rect x="20" y="500" width="350" height="98" rx="8" fill="#fff" stroke="#ececf1"/>
  <text x="30" y="522" font-family="Courier New, monospace" font-size="12" fill="#222">YourTickets-tickets.pdf</text>
  <text x="30" y="540" font-family="Arial, sans-serif" font-size="11" fill="#787884">Preview is shown in modal PDF view.</text>
  <text x="30" y="556" font-family="Arial, sans-serif" font-size="11" fill="#787884">Share action is available here.</text>
  <rect x="20" y="604" width="168" height="28" rx="10" fill="#111"/>
  <rect x="202" y="604" width="168" height="28" rx="10" fill="#111"/>
  <text x="104" y="623" text-anchor="middle" font-family="Arial, sans-serif" font-size="12" fill="#fff">Share</text>
  <text x="286" y="623" text-anchor="middle" font-family="Arial, sans-serif" font-size="12" fill="#fff">Close</text>
</svg>

